<mxfile host="app.diagrams.net" modified="2022-08-19T17:07:06.378Z" agent="5.0 (X11)" etag="Rt9FdINl1UxihtNkBpJ_" version="20.2.5" type="github">
  <diagram id="I_HhycaSbU6Y9DN1pas2" name="Page-1">
    <mxGraphModel dx="1138" dy="634" grid="1" gridSize="10" guides="1" tooltips="1" connect="1" arrows="1" fold="1" page="1" pageScale="1" pageWidth="800" pageHeight="800" math="0" shadow="0">
      <root>
        <mxCell id="0" />
        <mxCell id="1" parent="0" />
        <mxCell id="VZu2di2uU0qUiYQAbAui-32" value="" style="endArrow=none;dashed=1;html=1;dashPattern=1 3;strokeWidth=2;rounded=0;fontSize=15;" edge="1" parent="1">
          <mxGeometry width="50" height="50" relative="1" as="geometry">
            <mxPoint x="400" y="780" as="sourcePoint" />
            <mxPoint x="400" y="20" as="targetPoint" />
          </mxGeometry>
        </mxCell>
        <mxCell id="VZu2di2uU0qUiYQAbAui-34" value="" style="endArrow=none;dashed=1;html=1;rounded=0;fontSize=15;strokeWidth=2;" edge="1" parent="1">
          <mxGeometry width="50" height="50" relative="1" as="geometry">
            <mxPoint x="20" y="680" as="sourcePoint" />
            <mxPoint x="780" y="680" as="targetPoint" />
          </mxGeometry>
        </mxCell>
        <mxCell id="VZu2di2uU0qUiYQAbAui-36" value="VMX Root Mode" style="text;html=1;strokeColor=none;fillColor=none;align=center;verticalAlign=middle;whiteSpace=wrap;rounded=0;fontSize=15;" vertex="1" parent="1">
          <mxGeometry x="20" y="20" width="360" height="30" as="geometry" />
        </mxCell>
        <mxCell id="VZu2di2uU0qUiYQAbAui-37" value="VMX Non Root Mode" style="text;html=1;strokeColor=none;fillColor=none;align=center;verticalAlign=middle;whiteSpace=wrap;rounded=0;fontSize=15;" vertex="1" parent="1">
          <mxGeometry x="420" y="20" width="360" height="30" as="geometry" />
        </mxCell>
        <mxCell id="VZu2di2uU0qUiYQAbAui-38" value="Ring 3: Userspace" style="text;html=1;strokeColor=none;fillColor=none;align=center;verticalAlign=middle;whiteSpace=wrap;rounded=0;fontSize=15;rotation=-90;" vertex="1" parent="1">
          <mxGeometry x="-125" y="165" width="320" height="30" as="geometry" />
        </mxCell>
        <mxCell id="VZu2di2uU0qUiYQAbAui-39" value="Ring 0: Kernelspace" style="text;html=1;strokeColor=none;fillColor=none;align=center;verticalAlign=middle;whiteSpace=wrap;rounded=0;fontSize=15;rotation=-90;" vertex="1" parent="1">
          <mxGeometry x="-107.5" y="507.5" width="285" height="30" as="geometry" />
        </mxCell>
        <mxCell id="VZu2di2uU0qUiYQAbAui-40" value="VT-x CPU" style="text;html=1;strokeColor=none;fillColor=none;align=center;verticalAlign=middle;whiteSpace=wrap;rounded=0;fontSize=15;rotation=-90;" vertex="1" parent="1">
          <mxGeometry x="-5" y="725" width="80" height="30" as="geometry" />
        </mxCell>
        <mxCell id="VZu2di2uU0qUiYQAbAui-41" value="" style="rounded=0;whiteSpace=wrap;html=1;fontSize=15;" vertex="1" parent="1">
          <mxGeometry x="90" y="90" width="280" height="230" as="geometry" />
        </mxCell>
        <mxCell id="VZu2di2uU0qUiYQAbAui-42" value="QEMU" style="text;html=1;strokeColor=none;fillColor=none;align=center;verticalAlign=middle;whiteSpace=wrap;rounded=0;fontSize=15;" vertex="1" parent="1">
          <mxGeometry x="200" y="90" width="60" height="30" as="geometry" />
        </mxCell>
        <mxCell id="VZu2di2uU0qUiYQAbAui-43" value="" style="rounded=1;whiteSpace=wrap;html=1;fontSize=15;" vertex="1" parent="1">
          <mxGeometry x="110" y="140" width="240" height="140" as="geometry" />
        </mxCell>
        <mxCell id="VZu2di2uU0qUiYQAbAui-44" value="&lt;font style=&quot;font-size: 12px;&quot;&gt;Machine Model&lt;/font&gt;" style="text;html=1;strokeColor=none;fillColor=none;align=center;verticalAlign=middle;whiteSpace=wrap;rounded=0;fontSize=15;" vertex="1" parent="1">
          <mxGeometry x="170" y="140" width="120" height="20" as="geometry" />
        </mxCell>
        <mxCell id="VZu2di2uU0qUiYQAbAui-47" value="System Bus" style="rounded=1;whiteSpace=wrap;html=1;fontSize=12;" vertex="1" parent="1">
          <mxGeometry x="125" y="160" width="210" height="20" as="geometry" />
        </mxCell>
        <mxCell id="VZu2di2uU0qUiYQAbAui-50" style="edgeStyle=orthogonalEdgeStyle;rounded=0;orthogonalLoop=1;jettySize=auto;html=1;entryX=0.857;entryY=1.015;entryDx=0;entryDy=0;entryPerimeter=0;fontSize=12;strokeWidth=2;endArrow=none;endFill=0;" edge="1" parent="1" source="VZu2di2uU0qUiYQAbAui-48" target="VZu2di2uU0qUiYQAbAui-47">
          <mxGeometry relative="1" as="geometry" />
        </mxCell>
        <mxCell id="VZu2di2uU0qUiYQAbAui-48" value="&lt;div&gt;vCPU&lt;/div&gt;&lt;div&gt;&lt;br&gt;&lt;/div&gt;&lt;div&gt;&lt;br&gt;&lt;/div&gt;" style="rounded=1;whiteSpace=wrap;html=1;fontSize=12;" vertex="1" parent="1">
          <mxGeometry x="280" y="200" width="50" height="50" as="geometry" />
        </mxCell>
        <mxCell id="VZu2di2uU0qUiYQAbAui-52" style="edgeStyle=orthogonalEdgeStyle;rounded=0;orthogonalLoop=1;jettySize=auto;html=1;fontSize=12;strokeWidth=2;endArrow=none;endFill=0;" edge="1" parent="1" source="VZu2di2uU0qUiYQAbAui-51">
          <mxGeometry relative="1" as="geometry">
            <mxPoint x="235" y="180" as="targetPoint" />
            <Array as="points">
              <mxPoint x="235" y="180" />
            </Array>
          </mxGeometry>
        </mxCell>
        <mxCell id="VZu2di2uU0qUiYQAbAui-51" value="Memory" style="rounded=1;whiteSpace=wrap;html=1;fontSize=12;" vertex="1" parent="1">
          <mxGeometry x="200" y="200" width="70" height="30" as="geometry" />
        </mxCell>
        <mxCell id="VZu2di2uU0qUiYQAbAui-56" style="edgeStyle=orthogonalEdgeStyle;rounded=0;orthogonalLoop=1;jettySize=auto;html=1;entryX=0.13;entryY=0.97;entryDx=0;entryDy=0;entryPerimeter=0;fontSize=12;endArrow=none;endFill=0;strokeWidth=2;" edge="1" parent="1" source="VZu2di2uU0qUiYQAbAui-53" target="VZu2di2uU0qUiYQAbAui-47">
          <mxGeometry relative="1" as="geometry" />
        </mxCell>
        <mxCell id="VZu2di2uU0qUiYQAbAui-53" value="Device" style="rounded=1;whiteSpace=wrap;html=1;fontSize=12;" vertex="1" parent="1">
          <mxGeometry x="125" y="200" width="55" height="30" as="geometry" />
        </mxCell>
        <mxCell id="VZu2di2uU0qUiYQAbAui-55" style="edgeStyle=orthogonalEdgeStyle;rounded=0;orthogonalLoop=1;jettySize=auto;html=1;fontSize=12;endArrow=none;endFill=0;strokeWidth=2;" edge="1" parent="1" source="VZu2di2uU0qUiYQAbAui-54" target="VZu2di2uU0qUiYQAbAui-47">
          <mxGeometry relative="1" as="geometry">
            <Array as="points">
              <mxPoint x="315" y="210" />
              <mxPoint x="315" y="210" />
            </Array>
          </mxGeometry>
        </mxCell>
        <mxCell id="VZu2di2uU0qUiYQAbAui-54" value="&lt;div&gt;vCPU&lt;/div&gt;&lt;div&gt;&lt;br&gt;&lt;/div&gt;&lt;div&gt;&lt;br&gt;&lt;/div&gt;" style="rounded=1;whiteSpace=wrap;html=1;fontSize=12;" vertex="1" parent="1">
          <mxGeometry x="290" y="210" width="50" height="50" as="geometry" />
        </mxCell>
        <mxCell id="VZu2di2uU0qUiYQAbAui-58" style="edgeStyle=orthogonalEdgeStyle;rounded=0;orthogonalLoop=1;jettySize=auto;html=1;entryX=0.179;entryY=0.995;entryDx=0;entryDy=0;entryPerimeter=0;fontSize=12;endArrow=none;endFill=0;strokeWidth=2;" edge="1" parent="1" source="VZu2di2uU0qUiYQAbAui-57" target="VZu2di2uU0qUiYQAbAui-47">
          <mxGeometry relative="1" as="geometry" />
        </mxCell>
        <mxCell id="VZu2di2uU0qUiYQAbAui-57" value="Device" style="rounded=1;whiteSpace=wrap;html=1;fontSize=12;" vertex="1" parent="1">
          <mxGeometry x="135" y="210" width="55" height="30" as="geometry" />
        </mxCell>
        <mxCell id="VZu2di2uU0qUiYQAbAui-62" value="" style="verticalLabelPosition=bottom;verticalAlign=top;html=1;shape=mxgraph.basic.wave2;dy=0.3;fontSize=12;rotation=-90;" vertex="1" parent="1">
          <mxGeometry x="132.5" y="272.5" width="80" height="45" as="geometry" />
        </mxCell>
        <mxCell id="VZu2di2uU0qUiYQAbAui-65" value="" style="html=1;shadow=0;dashed=0;align=center;verticalAlign=middle;shape=mxgraph.arrows2.uTurnArrow;dy=11;arrowHead=43;dx2=25;fontSize=12;" vertex="1" parent="1">
          <mxGeometry x="120" y="310" width="100" height="100" as="geometry" />
        </mxCell>
        <mxCell id="VZu2di2uU0qUiYQAbAui-67" value="" style="rounded=0;whiteSpace=wrap;html=1;fontSize=12;strokeWidth=1;perimeterSpacing=2;" vertex="1" parent="1">
          <mxGeometry x="430" y="80" width="340" height="570" as="geometry" />
        </mxCell>
        <mxCell id="VZu2di2uU0qUiYQAbAui-33" value="" style="endArrow=none;dashed=1;html=1;rounded=0;fontSize=15;strokeWidth=2;" edge="1" parent="1">
          <mxGeometry width="50" height="50" relative="1" as="geometry">
            <mxPoint x="20" y="360" as="sourcePoint" />
            <mxPoint x="780" y="360" as="targetPoint" />
          </mxGeometry>
        </mxCell>
        <mxCell id="VZu2di2uU0qUiYQAbAui-68" value="&lt;font style=&quot;font-size: 15px;&quot;&gt;Guest&lt;/font&gt;" style="text;html=1;strokeColor=none;fillColor=none;align=center;verticalAlign=middle;whiteSpace=wrap;rounded=0;fontSize=12;" vertex="1" parent="1">
          <mxGeometry x="570" y="80" width="60" height="30" as="geometry" />
        </mxCell>
      </root>
    </mxGraphModel>
  </diagram>
</mxfile>
